<mxfile host="app.diagrams.net" agent="Mozilla/5.0 (Windows NT 10.0; Win64; x64) AppleWebKit/537.36 (KHTML, like Gecko) Chrome/135.0.0.0 Safari/537.36 OPR/120.0.0.0" version="28.0.7">
  <diagram id="planning_mgmt" name="Processus Planning">
    <mxGraphModel dx="1164" dy="673" grid="0" gridSize="10" guides="1" tooltips="1" connect="1" arrows="1" fold="1" page="1" pageScale="1" pageWidth="827" pageHeight="1169" math="0" shadow="0">
      <root>
        <mxCell id="0" />
        <mxCell id="1" parent="0" />
        <mxCell id="kb3HNxsTt5EakQqR46-G-233" style="edgeStyle=orthogonalEdgeStyle;rounded=0;orthogonalLoop=1;jettySize=auto;html=1;exitX=0.5;exitY=1;exitDx=0;exitDy=0;entryX=0.5;entryY=0;entryDx=0;entryDy=0;" parent="1" source="103" target="kb3HNxsTt5EakQqR46-G-230" edge="1">
          <mxGeometry relative="1" as="geometry" />
        </mxCell>
        <mxCell id="103" value="Saisir nouvelle durée (ex. 5 / 15 min)" style="rounded=1;whiteSpace=wrap;html=1;" parent="1" vertex="1">
          <mxGeometry x="120" y="474" width="111" height="60" as="geometry" />
        </mxCell>
        <mxCell id="105" value="Appliquer filtres : groupe, statut, bénévole…" style="rounded=1;whiteSpace=wrap;html=1;" parent="1" vertex="1">
          <mxGeometry x="286" y="336" width="95" height="60" as="geometry" />
        </mxCell>
        <mxCell id="106" value="Afficher liste candidats" style="rounded=1;whiteSpace=wrap;html=1;fillColor=#dae8fc;" parent="1" vertex="1">
          <mxGeometry x="291" y="427" width="89" height="60" as="geometry" />
        </mxCell>
        <mxCell id="107" value="Sélectionner bénéficiaire / groupe / bénévole" style="rounded=1;whiteSpace=wrap;html=1;" parent="1" vertex="1">
          <mxGeometry x="279" y="521" width="134" height="65.5" as="geometry" />
        </mxCell>
        <mxCell id="109" value="Affecter date et intervalle de temps&amp;nbsp;" style="rounded=1;whiteSpace=wrap;html=1;" parent="1" vertex="1">
          <mxGeometry x="293" y="612" width="100" height="60" as="geometry" />
        </mxCell>
        <mxCell id="111" value="valider les modifications?" style="rhombus;whiteSpace=wrap;html=1;perimeter=ellipsePerimeter;" parent="1" vertex="1">
          <mxGeometry x="291" y="710" width="95" height="90" as="geometry" />
        </mxCell>
        <mxCell id="209" style="edgeStyle=orthogonalEdgeStyle;endArrow=block;html=1;exitX=0.427;exitY=1.031;exitDx=0;exitDy=0;exitPerimeter=0;" parent="1" source="105" target="106" edge="1">
          <mxGeometry relative="1" as="geometry">
            <mxPoint x="406.0000000000002" y="494" as="sourcePoint" />
          </mxGeometry>
        </mxCell>
        <mxCell id="210" style="edgeStyle=orthogonalEdgeStyle;endArrow=block;html=1;" parent="1" source="106" target="107" edge="1">
          <mxGeometry relative="1" as="geometry" />
        </mxCell>
        <mxCell id="211" style="edgeStyle=orthogonalEdgeStyle;endArrow=block;html=1;" parent="1" source="107" target="109" edge="1">
          <mxGeometry relative="1" as="geometry">
            <mxPoint x="401.0000000000002" y="654" as="targetPoint" />
            <Array as="points">
              <mxPoint x="355" y="593" />
              <mxPoint x="346" y="593" />
            </Array>
          </mxGeometry>
        </mxCell>
        <mxCell id="217" style="edgeStyle=orthogonalEdgeStyle;endArrow=block;html=1;" parent="1" source="109" target="111" edge="1">
          <mxGeometry relative="1" as="geometry" />
        </mxCell>
        <mxCell id="220" style="edgeStyle=orthogonalEdgeStyle;endArrow=block;html=1;exitX=0.5;exitY=1;exitDx=0;exitDy=0;" parent="1" source="111" target="112" edge="1">
          <mxGeometry relative="1" as="geometry">
            <Array as="points">
              <mxPoint x="339" y="997" />
            </Array>
          </mxGeometry>
        </mxCell>
        <mxCell id="kb3HNxsTt5EakQqR46-G-231" value="oui" style="edgeLabel;html=1;align=center;verticalAlign=middle;resizable=0;points=[];" parent="220" vertex="1" connectable="0">
          <mxGeometry x="-0.249" y="2" relative="1" as="geometry">
            <mxPoint x="-2" y="-14" as="offset" />
          </mxGeometry>
        </mxCell>
        <mxCell id="kb3HNxsTt5EakQqR46-G-223" value="Changer intervalle&amp;nbsp;de&amp;nbsp;créneau&amp;nbsp;" style="rounded=1;whiteSpace=wrap;html=1;" parent="1" vertex="1">
          <mxGeometry x="121.5" y="416" width="119.5" height="37" as="geometry" />
        </mxCell>
        <mxCell id="kb3HNxsTt5EakQqR46-G-224" style="edgeStyle=orthogonalEdgeStyle;rounded=0;orthogonalLoop=1;jettySize=auto;html=1;entryX=0.5;entryY=0;entryDx=0;entryDy=0;" parent="1" source="ZaGfSk4bLFPUF5YWpZtl-254" target="ZaGfSk4bLFPUF5YWpZtl-234" edge="1">
          <mxGeometry relative="1" as="geometry">
            <mxPoint x="256.17999999999984" y="191" as="targetPoint" />
            <Array as="points">
              <mxPoint x="49" y="283" />
              <mxPoint x="115" y="283" />
              <mxPoint x="115" y="74" />
              <mxPoint x="188" y="74" />
            </Array>
          </mxGeometry>
        </mxCell>
        <mxCell id="kb3HNxsTt5EakQqR46-G-226" value="créer un planning pour un évennement" style="rounded=1;whiteSpace=wrap;html=1;" parent="1" vertex="1">
          <mxGeometry x="286" y="244" width="99" height="60" as="geometry" />
        </mxCell>
        <mxCell id="kb3HNxsTt5EakQqR46-G-227" style="edgeStyle=orthogonalEdgeStyle;rounded=0;orthogonalLoop=1;jettySize=auto;html=1;exitX=0.5;exitY=1;exitDx=0;exitDy=0;entryX=0.349;entryY=-0.01;entryDx=0;entryDy=0;entryPerimeter=0;" parent="1" source="kb3HNxsTt5EakQqR46-G-226" target="105" edge="1">
          <mxGeometry relative="1" as="geometry" />
        </mxCell>
        <mxCell id="kb3HNxsTt5EakQqR46-G-228" value="selectionner un event" style="rounded=1;whiteSpace=wrap;html=1;" parent="1" vertex="1">
          <mxGeometry x="127" y="247" width="120" height="30" as="geometry" />
        </mxCell>
        <mxCell id="kb3HNxsTt5EakQqR46-G-229" style="edgeStyle=orthogonalEdgeStyle;rounded=0;orthogonalLoop=1;jettySize=auto;html=1;exitX=0.5;exitY=1;exitDx=0;exitDy=0;entryX=0.458;entryY=0.02;entryDx=0;entryDy=0;entryPerimeter=0;" parent="1" source="kb3HNxsTt5EakQqR46-G-223" target="103" edge="1">
          <mxGeometry relative="1" as="geometry" />
        </mxCell>
        <mxCell id="kb3HNxsTt5EakQqR46-G-235" value="oui" style="edgeStyle=orthogonalEdgeStyle;rounded=0;orthogonalLoop=1;jettySize=auto;html=1;exitX=0.5;exitY=1;exitDx=0;exitDy=0;entryX=0.5;entryY=0;entryDx=0;entryDy=0;" parent="1" source="kb3HNxsTt5EakQqR46-G-230" target="kb3HNxsTt5EakQqR46-G-234" edge="1">
          <mxGeometry relative="1" as="geometry" />
        </mxCell>
        <mxCell id="kb3HNxsTt5EakQqR46-G-236" value="non" style="edgeStyle=orthogonalEdgeStyle;rounded=0;orthogonalLoop=1;jettySize=auto;html=1;exitX=1;exitY=0.5;exitDx=0;exitDy=0;" parent="1" source="kb3HNxsTt5EakQqR46-G-230" target="kb3HNxsTt5EakQqR46-G-237" edge="1">
          <mxGeometry x="-0.7378" y="20" relative="1" as="geometry">
            <mxPoint x="76" y="524" as="targetPoint" />
            <Array as="points">
              <mxPoint x="256" y="629" />
              <mxPoint x="256" y="324" />
              <mxPoint x="197" y="324" />
            </Array>
            <mxPoint as="offset" />
          </mxGeometry>
        </mxCell>
        <mxCell id="kb3HNxsTt5EakQqR46-G-230" value="est-ce que tous les membres sont repris par le nouvel horaire?" style="rhombus;whiteSpace=wrap;html=1;perimeter=ellipsePerimeter;" parent="1" vertex="1">
          <mxGeometry x="117" y="560" width="140" height="150" as="geometry" />
        </mxCell>
        <mxCell id="kb3HNxsTt5EakQqR46-G-232" value="non" style="edgeStyle=orthogonalEdgeStyle;rounded=0;orthogonalLoop=1;jettySize=auto;html=1;exitX=1;exitY=0.5;exitDx=0;exitDy=0;" parent="1" source="111" target="106" edge="1">
          <mxGeometry x="-0.9233" y="15" relative="1" as="geometry">
            <Array as="points">
              <mxPoint x="422" y="755" />
              <mxPoint x="422" y="410" />
              <mxPoint x="347" y="410" />
            </Array>
            <mxPoint as="offset" />
          </mxGeometry>
        </mxCell>
        <mxCell id="kb3HNxsTt5EakQqR46-G-241" value="non" style="edgeStyle=orthogonalEdgeStyle;rounded=0;orthogonalLoop=1;jettySize=auto;html=1;exitX=1;exitY=0.5;exitDx=0;exitDy=0;" parent="1" source="kb3HNxsTt5EakQqR46-G-234" target="kb3HNxsTt5EakQqR46-G-237" edge="1">
          <mxGeometry x="-0.8268" y="-14" relative="1" as="geometry">
            <Array as="points">
              <mxPoint x="215" y="799" />
              <mxPoint x="266" y="799" />
              <mxPoint x="266" y="309" />
              <mxPoint x="168" y="309" />
            </Array>
            <mxPoint as="offset" />
          </mxGeometry>
        </mxCell>
        <mxCell id="kb3HNxsTt5EakQqR46-G-234" value="valider les modifications?" style="rhombus;whiteSpace=wrap;html=1;perimeter=ellipsePerimeter;" parent="1" vertex="1">
          <mxGeometry x="139.5" y="749" width="95" height="90" as="geometry" />
        </mxCell>
        <mxCell id="kb3HNxsTt5EakQqR46-G-239" style="edgeStyle=orthogonalEdgeStyle;rounded=0;orthogonalLoop=1;jettySize=auto;html=1;exitX=0.5;exitY=1;exitDx=0;exitDy=0;entryX=0.5;entryY=0;entryDx=0;entryDy=0;" parent="1" source="kb3HNxsTt5EakQqR46-G-237" target="kb3HNxsTt5EakQqR46-G-223" edge="1">
          <mxGeometry relative="1" as="geometry" />
        </mxCell>
        <mxCell id="kb3HNxsTt5EakQqR46-G-237" value="afficher l&#39;horaire" style="rounded=1;whiteSpace=wrap;html=1;fillColor=#dae8fc;strokeColor=#6c8ebf;" parent="1" vertex="1">
          <mxGeometry x="125" y="348" width="120" height="30" as="geometry" />
        </mxCell>
        <mxCell id="kb3HNxsTt5EakQqR46-G-238" style="edgeStyle=orthogonalEdgeStyle;rounded=0;orthogonalLoop=1;jettySize=auto;html=1;exitX=0.5;exitY=1;exitDx=0;exitDy=0;" parent="1" source="kb3HNxsTt5EakQqR46-G-228" target="kb3HNxsTt5EakQqR46-G-237" edge="1">
          <mxGeometry relative="1" as="geometry">
            <Array as="points">
              <mxPoint x="187" y="288" />
              <mxPoint x="151" y="288" />
            </Array>
          </mxGeometry>
        </mxCell>
        <mxCell id="kb3HNxsTt5EakQqR46-G-245" value="ajouter membre" style="rounded=1;whiteSpace=wrap;html=1;" parent="1" vertex="1">
          <mxGeometry x="443" y="406.95" width="120" height="30" as="geometry" />
        </mxCell>
        <mxCell id="kb3HNxsTt5EakQqR46-G-246" value="selectionner un event" style="rounded=1;whiteSpace=wrap;html=1;" parent="1" vertex="1">
          <mxGeometry x="426" y="241" width="120" height="30" as="geometry" />
        </mxCell>
        <mxCell id="kb3HNxsTt5EakQqR46-G-247" style="edgeStyle=orthogonalEdgeStyle;rounded=0;orthogonalLoop=1;jettySize=auto;html=1;exitX=0.5;exitY=1;exitDx=0;exitDy=0;" parent="1" source="kb3HNxsTt5EakQqR46-G-245" target="kb3HNxsTt5EakQqR46-G-250" edge="1">
          <mxGeometry relative="1" as="geometry">
            <mxPoint x="502.53999999999996" y="458.15" as="targetPoint" />
          </mxGeometry>
        </mxCell>
        <mxCell id="kb3HNxsTt5EakQqR46-G-248" value="oui" style="edgeStyle=orthogonalEdgeStyle;rounded=0;orthogonalLoop=1;jettySize=auto;html=1;exitX=0.5;exitY=1;exitDx=0;exitDy=0;entryX=0.5;entryY=0;entryDx=0;entryDy=0;" parent="1" source="kb3HNxsTt5EakQqR46-G-250" target="kb3HNxsTt5EakQqR46-G-252" edge="1">
          <mxGeometry relative="1" as="geometry" />
        </mxCell>
        <mxCell id="kb3HNxsTt5EakQqR46-G-249" value="non" style="edgeStyle=orthogonalEdgeStyle;rounded=0;orthogonalLoop=1;jettySize=auto;html=1;exitX=1;exitY=0.5;exitDx=0;exitDy=0;" parent="1" source="kb3HNxsTt5EakQqR46-G-250" target="kb3HNxsTt5EakQqR46-G-254" edge="1">
          <mxGeometry x="-0.7272" y="20" relative="1" as="geometry">
            <mxPoint x="418" y="506.95" as="targetPoint" />
            <Array as="points">
              <mxPoint x="588" y="612" />
              <mxPoint x="588" y="307" />
              <mxPoint x="540" y="307" />
            </Array>
            <mxPoint as="offset" />
          </mxGeometry>
        </mxCell>
        <mxCell id="kb3HNxsTt5EakQqR46-G-250" value="est-ce que tous les membres sont repris par le nouvel horaire?" style="rhombus;whiteSpace=wrap;html=1;perimeter=ellipsePerimeter;" parent="1" vertex="1">
          <mxGeometry x="428" y="537" width="142" height="147" as="geometry" />
        </mxCell>
        <mxCell id="kb3HNxsTt5EakQqR46-G-251" value="non" style="edgeStyle=orthogonalEdgeStyle;rounded=0;orthogonalLoop=1;jettySize=auto;html=1;exitX=1;exitY=0.5;exitDx=0;exitDy=0;" parent="1" source="kb3HNxsTt5EakQqR46-G-252" target="kb3HNxsTt5EakQqR46-G-254" edge="1">
          <mxGeometry x="-0.931" y="15" relative="1" as="geometry">
            <Array as="points">
              <mxPoint x="596" y="782" />
              <mxPoint x="596" y="298" />
              <mxPoint x="516" y="298" />
            </Array>
            <mxPoint as="offset" />
          </mxGeometry>
        </mxCell>
        <mxCell id="kb3HNxsTt5EakQqR46-G-256" value="oui" style="edgeStyle=orthogonalEdgeStyle;rounded=1;orthogonalLoop=1;jettySize=auto;html=1;exitX=0.5;exitY=1;exitDx=0;exitDy=0;curved=0;" parent="1" source="kb3HNxsTt5EakQqR46-G-252" target="112" edge="1">
          <mxGeometry relative="1" as="geometry">
            <Array as="points">
              <mxPoint x="508" y="986" />
            </Array>
          </mxGeometry>
        </mxCell>
        <mxCell id="kb3HNxsTt5EakQqR46-G-252" value="valider les modifications?" style="rhombus;whiteSpace=wrap;html=1;perimeter=ellipsePerimeter;" parent="1" vertex="1">
          <mxGeometry x="460.5" y="736.95" width="95" height="90" as="geometry" />
        </mxCell>
        <mxCell id="kb3HNxsTt5EakQqR46-G-253" style="edgeStyle=orthogonalEdgeStyle;rounded=0;orthogonalLoop=1;jettySize=auto;html=1;exitX=0.5;exitY=1;exitDx=0;exitDy=0;entryX=0.5;entryY=0;entryDx=0;entryDy=0;" parent="1" source="kb3HNxsTt5EakQqR46-G-254" target="kb3HNxsTt5EakQqR46-G-245" edge="1">
          <mxGeometry relative="1" as="geometry" />
        </mxCell>
        <mxCell id="kb3HNxsTt5EakQqR46-G-254" value="afficher l&#39;horaire" style="rounded=1;whiteSpace=wrap;html=1;fillColor=#dae8fc;strokeColor=#6c8ebf;" parent="1" vertex="1">
          <mxGeometry x="443" y="326.95" width="116" height="30" as="geometry" />
        </mxCell>
        <mxCell id="kb3HNxsTt5EakQqR46-G-255" style="edgeStyle=orthogonalEdgeStyle;rounded=0;orthogonalLoop=1;jettySize=auto;html=1;" parent="1" source="kb3HNxsTt5EakQqR46-G-246" target="kb3HNxsTt5EakQqR46-G-254" edge="1">
          <mxGeometry relative="1" as="geometry">
            <mxPoint x="485.98" y="253.95" as="sourcePoint" />
            <mxPoint x="485.98" y="326.95" as="targetPoint" />
            <Array as="points">
              <mxPoint x="486" y="312" />
              <mxPoint x="486" y="312" />
            </Array>
          </mxGeometry>
        </mxCell>
        <mxCell id="kb3HNxsTt5EakQqR46-G-280" style="edgeStyle=orthogonalEdgeStyle;rounded=0;orthogonalLoop=1;jettySize=auto;html=1;exitX=0.25;exitY=1;exitDx=0;exitDy=0;entryX=0.5;entryY=0;entryDx=0;entryDy=0;" parent="1" source="kb3HNxsTt5EakQqR46-G-260" target="kb3HNxsTt5EakQqR46-G-267" edge="1">
          <mxGeometry relative="1" as="geometry">
            <Array as="points">
              <mxPoint x="624" y="558" />
              <mxPoint x="606" y="558" />
              <mxPoint x="606" y="748" />
              <mxPoint x="637" y="748" />
            </Array>
          </mxGeometry>
        </mxCell>
        <mxCell id="kb3HNxsTt5EakQqR46-G-260" value="effacer rdv pour membre N°1" style="rounded=1;whiteSpace=wrap;html=1;" parent="1" vertex="1">
          <mxGeometry x="600" y="516" width="96" height="30" as="geometry" />
        </mxCell>
        <mxCell id="kb3HNxsTt5EakQqR46-G-266" value="non" style="edgeStyle=orthogonalEdgeStyle;rounded=0;orthogonalLoop=1;jettySize=auto;html=1;exitX=1;exitY=0.5;exitDx=0;exitDy=0;" parent="1" source="kb3HNxsTt5EakQqR46-G-267" target="kb3HNxsTt5EakQqR46-G-269" edge="1">
          <mxGeometry x="-0.9606" y="10" relative="1" as="geometry">
            <Array as="points">
              <mxPoint x="717" y="805" />
              <mxPoint x="717" y="318" />
              <mxPoint x="655" y="318" />
            </Array>
            <mxPoint as="offset" />
          </mxGeometry>
        </mxCell>
        <mxCell id="kb3HNxsTt5EakQqR46-G-283" style="edgeStyle=orthogonalEdgeStyle;rounded=0;orthogonalLoop=1;jettySize=auto;html=1;exitX=0.5;exitY=1;exitDx=0;exitDy=0;entryX=0.5;entryY=0;entryDx=0;entryDy=0;" parent="1" source="kb3HNxsTt5EakQqR46-G-269" target="kb3HNxsTt5EakQqR46-G-272" edge="1">
          <mxGeometry relative="1" as="geometry" />
        </mxCell>
        <mxCell id="kb3HNxsTt5EakQqR46-G-269" value="afficher l&#39;horaire" style="rounded=1;whiteSpace=wrap;html=1;fillColor=#dae8fc;strokeColor=#6c8ebf;" parent="1" vertex="1">
          <mxGeometry x="614" y="338" width="60" height="30" as="geometry" />
        </mxCell>
        <mxCell id="kb3HNxsTt5EakQqR46-G-270" style="edgeStyle=orthogonalEdgeStyle;rounded=0;orthogonalLoop=1;jettySize=auto;html=1;exitX=0.5;exitY=1;exitDx=0;exitDy=0;entryX=0.415;entryY=-0.09;entryDx=0;entryDy=0;entryPerimeter=0;" parent="1" source="kb3HNxsTt5EakQqR46-G-261" target="kb3HNxsTt5EakQqR46-G-269" edge="1">
          <mxGeometry relative="1" as="geometry" />
        </mxCell>
        <mxCell id="kb3HNxsTt5EakQqR46-G-275" value="" style="html=1;points=[];perimeter=orthogonalPerimeter;fillColor=strokeColor;rotation=90;" parent="1" vertex="1">
          <mxGeometry x="652" y="434" width="5" height="106" as="geometry" />
        </mxCell>
        <mxCell id="kb3HNxsTt5EakQqR46-G-276" style="edgeStyle=orthogonalEdgeStyle;rounded=0;orthogonalLoop=1;jettySize=auto;html=1;exitX=0.25;exitY=1;exitDx=0;exitDy=0;" parent="1" source="kb3HNxsTt5EakQqR46-G-272" edge="1">
          <mxGeometry relative="1" as="geometry">
            <mxPoint x="629" y="478" as="targetPoint" />
          </mxGeometry>
        </mxCell>
        <mxCell id="kb3HNxsTt5EakQqR46-G-277" value="" style="endArrow=classic;html=1;rounded=0;entryX=0.25;entryY=0;entryDx=0;entryDy=0;exitX=0.462;exitY=0.805;exitDx=0;exitDy=0;exitPerimeter=0;" parent="1" source="kb3HNxsTt5EakQqR46-G-275" target="kb3HNxsTt5EakQqR46-G-260" edge="1">
          <mxGeometry width="50" height="50" relative="1" as="geometry">
            <mxPoint x="339" y="568" as="sourcePoint" />
            <mxPoint x="349" y="528" as="targetPoint" />
          </mxGeometry>
        </mxCell>
        <mxCell id="kb3HNxsTt5EakQqR46-G-278" value="" style="endArrow=classic;html=1;rounded=1;exitX=0.95;exitY=0.075;exitDx=0;exitDy=0;exitPerimeter=0;curved=0;" parent="1" source="kb3HNxsTt5EakQqR46-G-275" edge="1">
          <mxGeometry width="50" height="50" relative="1" as="geometry">
            <mxPoint x="709" y="508" as="sourcePoint" />
            <mxPoint x="678" y="578" as="targetPoint" />
            <Array as="points">
              <mxPoint x="700" y="561" />
            </Array>
          </mxGeometry>
        </mxCell>
        <mxCell id="kb3HNxsTt5EakQqR46-G-282" value="oui" style="edgeStyle=orthogonalEdgeStyle;rounded=1;orthogonalLoop=1;jettySize=auto;html=1;exitX=0.5;exitY=1;exitDx=0;exitDy=0;curved=0;" parent="1" source="kb3HNxsTt5EakQqR46-G-267" target="112" edge="1">
          <mxGeometry relative="1" as="geometry">
            <Array as="points">
              <mxPoint x="637" y="975" />
            </Array>
          </mxGeometry>
        </mxCell>
        <mxCell id="ZaGfSk4bLFPUF5YWpZtl-222" value="responsable" style="swimlane;whiteSpace=wrap;html=1;" vertex="1" parent="1">
          <mxGeometry y="6" width="96" height="1126" as="geometry" />
        </mxCell>
        <mxCell id="ZaGfSk4bLFPUF5YWpZtl-255" style="edgeStyle=orthogonalEdgeStyle;rounded=0;orthogonalLoop=1;jettySize=auto;html=1;exitX=0.5;exitY=1;exitDx=0;exitDy=0;" edge="1" parent="ZaGfSk4bLFPUF5YWpZtl-222" source="101" target="ZaGfSk4bLFPUF5YWpZtl-254">
          <mxGeometry relative="1" as="geometry" />
        </mxCell>
        <mxCell id="101" value="Responsable ouvre le module planning" style="rounded=1;whiteSpace=wrap;html=1;" parent="ZaGfSk4bLFPUF5YWpZtl-222" vertex="1">
          <mxGeometry x="6" y="105" width="85" height="60" as="geometry" />
        </mxCell>
        <mxCell id="ZaGfSk4bLFPUF5YWpZtl-226" value="" style="edgeStyle=orthogonalEdgeStyle;rounded=0;orthogonalLoop=1;jettySize=auto;html=1;" edge="1" parent="ZaGfSk4bLFPUF5YWpZtl-222" source="100" target="101">
          <mxGeometry relative="1" as="geometry" />
        </mxCell>
        <mxCell id="100" style="ellipse;shape=startState;fillColor=#000000;strokeColor=#000000;" parent="ZaGfSk4bLFPUF5YWpZtl-222" vertex="1">
          <mxGeometry x="21" y="35" width="30" height="30" as="geometry" />
        </mxCell>
        <mxCell id="201" style="edgeStyle=orthogonalEdgeStyle;endArrow=block;html=1;" parent="ZaGfSk4bLFPUF5YWpZtl-222" source="100" target="101" edge="1">
          <mxGeometry relative="1" as="geometry" />
        </mxCell>
        <mxCell id="ZaGfSk4bLFPUF5YWpZtl-254" value="cliquer sur&lt;div&gt;une fonctionnalité&lt;/div&gt;" style="rounded=1;whiteSpace=wrap;html=1;" vertex="1" parent="ZaGfSk4bLFPUF5YWpZtl-222">
          <mxGeometry x="6" y="203" width="85" height="60" as="geometry" />
        </mxCell>
        <mxCell id="ZaGfSk4bLFPUF5YWpZtl-223" value="sql lite" style="swimlane;whiteSpace=wrap;html=1;" vertex="1" parent="1">
          <mxGeometry x="728" y="6.5" width="94" height="1123.5" as="geometry" />
        </mxCell>
        <mxCell id="112" value="Sauvegarder planning" style="rounded=1;whiteSpace=wrap;html=1;fillColor=#fff2cc;" parent="ZaGfSk4bLFPUF5YWpZtl-223" vertex="1">
          <mxGeometry x="11" y="945.5" width="83" height="60" as="geometry" />
        </mxCell>
        <mxCell id="ZaGfSk4bLFPUF5YWpZtl-227" value="system" style="swimlane;whiteSpace=wrap;html=1;" vertex="1" parent="1">
          <mxGeometry x="97.5" y="6" width="628.5" height="1126" as="geometry" />
        </mxCell>
        <mxCell id="kb3HNxsTt5EakQqR46-G-273" value="sélectionner&amp;nbsp;&lt;div&gt;membre N°2&lt;/div&gt;" style="rounded=1;whiteSpace=wrap;html=1;" parent="ZaGfSk4bLFPUF5YWpZtl-227" vertex="1">
          <mxGeometry x="515.5" y="574" width="89.5" height="30" as="geometry" />
        </mxCell>
        <mxCell id="ZaGfSk4bLFPUF5YWpZtl-231" style="edgeStyle=orthogonalEdgeStyle;rounded=0;orthogonalLoop=1;jettySize=auto;html=1;exitX=0.5;exitY=1;exitDx=0;exitDy=0;" edge="1" parent="ZaGfSk4bLFPUF5YWpZtl-227" source="kb3HNxsTt5EakQqR46-G-271">
          <mxGeometry relative="1" as="geometry">
            <mxPoint x="552.8808942522321" y="756.6190476190475" as="targetPoint" />
          </mxGeometry>
        </mxCell>
        <mxCell id="kb3HNxsTt5EakQqR46-G-271" value="intervertir rdv des&lt;div&gt;&amp;nbsp;2 membres&lt;/div&gt;" style="rounded=1;whiteSpace=wrap;html=1;" parent="ZaGfSk4bLFPUF5YWpZtl-227" vertex="1">
          <mxGeometry x="514.75" y="634" width="99" height="30" as="geometry" />
        </mxCell>
        <mxCell id="kb3HNxsTt5EakQqR46-G-279" style="edgeStyle=orthogonalEdgeStyle;rounded=0;orthogonalLoop=1;jettySize=auto;html=1;exitX=0.5;exitY=1;exitDx=0;exitDy=0;entryX=0.5;entryY=0;entryDx=0;entryDy=0;" parent="ZaGfSk4bLFPUF5YWpZtl-227" source="kb3HNxsTt5EakQqR46-G-273" target="kb3HNxsTt5EakQqR46-G-271" edge="1">
          <mxGeometry relative="1" as="geometry" />
        </mxCell>
        <mxCell id="kb3HNxsTt5EakQqR46-G-272" value="sélectionner&amp;nbsp;&lt;div&gt;membre N°1&lt;/div&gt;" style="rounded=1;whiteSpace=wrap;html=1;" parent="ZaGfSk4bLFPUF5YWpZtl-227" vertex="1">
          <mxGeometry x="516.5" y="398" width="81.5" height="30" as="geometry" />
        </mxCell>
        <mxCell id="kb3HNxsTt5EakQqR46-G-261" value="selectionner un event" style="rounded=1;whiteSpace=wrap;html=1;" parent="ZaGfSk4bLFPUF5YWpZtl-227" vertex="1">
          <mxGeometry x="467.25" y="228" width="120" height="30" as="geometry" />
        </mxCell>
        <mxCell id="kb3HNxsTt5EakQqR46-G-267" value="valider les modifications?" style="rhombus;whiteSpace=wrap;html=1;perimeter=ellipsePerimeter;" parent="ZaGfSk4bLFPUF5YWpZtl-227" vertex="1">
          <mxGeometry x="492.25" y="754" width="95" height="90" as="geometry" />
        </mxCell>
        <mxCell id="kb3HNxsTt5EakQqR46-G-242" value="oui" style="edgeStyle=orthogonalEdgeStyle;rounded=0;orthogonalLoop=1;jettySize=auto;html=1;exitX=0.5;exitY=1;exitDx=0;exitDy=0;" parent="ZaGfSk4bLFPUF5YWpZtl-227" edge="1">
          <mxGeometry relative="1" as="geometry">
            <Array as="points">
              <mxPoint x="90" y="1000" />
            </Array>
            <mxPoint x="89.5" y="844" as="sourcePoint" />
            <mxPoint x="641.5" y="1000" as="targetPoint" />
          </mxGeometry>
        </mxCell>
        <mxCell id="ZaGfSk4bLFPUF5YWpZtl-233" style="edgeStyle=orthogonalEdgeStyle;rounded=0;orthogonalLoop=1;jettySize=auto;html=1;exitX=0;exitY=0.5;exitDx=0;exitDy=0;entryX=1;entryY=0.5;entryDx=0;entryDy=0;" edge="1" parent="ZaGfSk4bLFPUF5YWpZtl-227" source="ZaGfSk4bLFPUF5YWpZtl-232" target="113">
          <mxGeometry relative="1" as="geometry" />
        </mxCell>
        <mxCell id="ZaGfSk4bLFPUF5YWpZtl-232" value="message confirmation" style="rounded=1;whiteSpace=wrap;html=1;fillColor=#fff2cc;" vertex="1" parent="ZaGfSk4bLFPUF5YWpZtl-227">
          <mxGeometry x="235.5" y="1032" width="83" height="60" as="geometry" />
        </mxCell>
        <mxCell id="113" style="ellipse;shape=endState;fillColor=strokeColor;" parent="ZaGfSk4bLFPUF5YWpZtl-227" vertex="1">
          <mxGeometry x="84.5" y="1066" width="30" height="30" as="geometry" />
        </mxCell>
        <mxCell id="ZaGfSk4bLFPUF5YWpZtl-236" style="edgeStyle=orthogonalEdgeStyle;rounded=0;orthogonalLoop=1;jettySize=auto;html=1;exitX=0.5;exitY=1;exitDx=0;exitDy=0;" edge="1" parent="ZaGfSk4bLFPUF5YWpZtl-227" source="ZaGfSk4bLFPUF5YWpZtl-234">
          <mxGeometry relative="1" as="geometry">
            <mxPoint x="69.58002929687495" y="240.8000366210938" as="targetPoint" />
          </mxGeometry>
        </mxCell>
        <mxCell id="ZaGfSk4bLFPUF5YWpZtl-242" value="changer&amp;nbsp;&lt;div&gt;la durée&lt;/div&gt;&lt;div&gt;des créneaux&lt;/div&gt;" style="edgeLabel;html=1;align=center;verticalAlign=middle;resizable=0;points=[];" vertex="1" connectable="0" parent="ZaGfSk4bLFPUF5YWpZtl-236">
          <mxGeometry x="-0.655" y="-2" relative="1" as="geometry">
            <mxPoint as="offset" />
          </mxGeometry>
        </mxCell>
        <mxCell id="ZaGfSk4bLFPUF5YWpZtl-249" style="edgeStyle=orthogonalEdgeStyle;rounded=0;orthogonalLoop=1;jettySize=auto;html=1;entryX=0;entryY=0.5;entryDx=0;entryDy=0;" edge="1" parent="ZaGfSk4bLFPUF5YWpZtl-227" source="ZaGfSk4bLFPUF5YWpZtl-234" target="ZaGfSk4bLFPUF5YWpZtl-237">
          <mxGeometry relative="1" as="geometry" />
        </mxCell>
        <mxCell id="ZaGfSk4bLFPUF5YWpZtl-234" value="" style="rhombus;whiteSpace=wrap;html=1;" vertex="1" parent="ZaGfSk4bLFPUF5YWpZtl-227">
          <mxGeometry x="70.5" y="88" width="40.5" height="36" as="geometry" />
        </mxCell>
        <mxCell id="ZaGfSk4bLFPUF5YWpZtl-251" style="edgeStyle=orthogonalEdgeStyle;rounded=0;orthogonalLoop=1;jettySize=auto;html=1;exitX=1;exitY=0.5;exitDx=0;exitDy=0;entryX=0;entryY=0.5;entryDx=0;entryDy=0;" edge="1" parent="ZaGfSk4bLFPUF5YWpZtl-227" source="ZaGfSk4bLFPUF5YWpZtl-238" target="ZaGfSk4bLFPUF5YWpZtl-239">
          <mxGeometry relative="1" as="geometry" />
        </mxCell>
        <mxCell id="ZaGfSk4bLFPUF5YWpZtl-238" value="" style="rhombus;whiteSpace=wrap;html=1;" vertex="1" parent="ZaGfSk4bLFPUF5YWpZtl-227">
          <mxGeometry x="368.5" y="88" width="40.5" height="36" as="geometry" />
        </mxCell>
        <mxCell id="ZaGfSk4bLFPUF5YWpZtl-247" value="" style="edgeStyle=orthogonalEdgeStyle;rounded=0;orthogonalLoop=1;jettySize=auto;html=1;" edge="1" parent="ZaGfSk4bLFPUF5YWpZtl-227" source="ZaGfSk4bLFPUF5YWpZtl-239" target="kb3HNxsTt5EakQqR46-G-261">
          <mxGeometry relative="1" as="geometry" />
        </mxCell>
        <mxCell id="ZaGfSk4bLFPUF5YWpZtl-248" value="échanger&amp;nbsp;&lt;div&gt;les places de rdv&amp;nbsp;&lt;/div&gt;&lt;div&gt;entre 2 membres&lt;/div&gt;&lt;div&gt;&amp;nbsp;d&#39;un planning&lt;/div&gt;" style="edgeLabel;html=1;align=center;verticalAlign=middle;resizable=0;points=[];" vertex="1" connectable="0" parent="ZaGfSk4bLFPUF5YWpZtl-247">
          <mxGeometry x="-0.3421" y="1" relative="1" as="geometry">
            <mxPoint as="offset" />
          </mxGeometry>
        </mxCell>
        <mxCell id="ZaGfSk4bLFPUF5YWpZtl-253" style="edgeStyle=orthogonalEdgeStyle;rounded=0;orthogonalLoop=1;jettySize=auto;html=1;exitX=1;exitY=0.5;exitDx=0;exitDy=0;entryX=0;entryY=0.5;entryDx=0;entryDy=0;" edge="1" parent="ZaGfSk4bLFPUF5YWpZtl-227" source="ZaGfSk4bLFPUF5YWpZtl-239" target="ZaGfSk4bLFPUF5YWpZtl-252">
          <mxGeometry relative="1" as="geometry" />
        </mxCell>
        <mxCell id="ZaGfSk4bLFPUF5YWpZtl-239" value="" style="rhombus;whiteSpace=wrap;html=1;" vertex="1" parent="ZaGfSk4bLFPUF5YWpZtl-227">
          <mxGeometry x="507" y="88" width="40.5" height="36" as="geometry" />
        </mxCell>
        <mxCell id="ZaGfSk4bLFPUF5YWpZtl-250" style="edgeStyle=orthogonalEdgeStyle;rounded=0;orthogonalLoop=1;jettySize=auto;html=1;exitX=1;exitY=0.5;exitDx=0;exitDy=0;entryX=0;entryY=0.5;entryDx=0;entryDy=0;" edge="1" parent="ZaGfSk4bLFPUF5YWpZtl-227" source="ZaGfSk4bLFPUF5YWpZtl-237" target="ZaGfSk4bLFPUF5YWpZtl-238">
          <mxGeometry relative="1" as="geometry" />
        </mxCell>
        <mxCell id="ZaGfSk4bLFPUF5YWpZtl-237" value="" style="rhombus;whiteSpace=wrap;html=1;" vertex="1" parent="ZaGfSk4bLFPUF5YWpZtl-227">
          <mxGeometry x="208.5" y="88" width="40.5" height="36" as="geometry" />
        </mxCell>
        <mxCell id="ZaGfSk4bLFPUF5YWpZtl-252" value="" style="ellipse;html=1;shape=endState;fillColor=strokeColor;" vertex="1" parent="ZaGfSk4bLFPUF5YWpZtl-227">
          <mxGeometry x="584.5" y="91" width="30" height="30" as="geometry" />
        </mxCell>
        <mxCell id="222" style="edgeStyle=orthogonalEdgeStyle;endArrow=block;html=1;" parent="1" source="112" target="ZaGfSk4bLFPUF5YWpZtl-232" edge="1">
          <mxGeometry relative="1" as="geometry">
            <Array as="points">
              <mxPoint x="781" y="1068" />
            </Array>
          </mxGeometry>
        </mxCell>
        <mxCell id="ZaGfSk4bLFPUF5YWpZtl-243" style="edgeStyle=orthogonalEdgeStyle;rounded=0;orthogonalLoop=1;jettySize=auto;html=1;exitX=0.5;exitY=1;exitDx=0;exitDy=0;" edge="1" parent="1" source="ZaGfSk4bLFPUF5YWpZtl-237">
          <mxGeometry relative="1" as="geometry">
            <mxPoint x="329" y="242" as="targetPoint" />
          </mxGeometry>
        </mxCell>
        <mxCell id="ZaGfSk4bLFPUF5YWpZtl-244" value="etablir un&amp;nbsp;&lt;div&gt;nouveau plannning&amp;nbsp;&lt;/div&gt;" style="edgeLabel;html=1;align=center;verticalAlign=middle;resizable=0;points=[];" vertex="1" connectable="0" parent="ZaGfSk4bLFPUF5YWpZtl-243">
          <mxGeometry x="-0.17" y="-1" relative="1" as="geometry">
            <mxPoint as="offset" />
          </mxGeometry>
        </mxCell>
        <mxCell id="ZaGfSk4bLFPUF5YWpZtl-245" style="edgeStyle=orthogonalEdgeStyle;rounded=0;orthogonalLoop=1;jettySize=auto;html=1;exitX=0.5;exitY=1;exitDx=0;exitDy=0;entryX=0.5;entryY=0;entryDx=0;entryDy=0;" edge="1" parent="1" source="ZaGfSk4bLFPUF5YWpZtl-238" target="kb3HNxsTt5EakQqR46-G-246">
          <mxGeometry relative="1" as="geometry" />
        </mxCell>
        <mxCell id="ZaGfSk4bLFPUF5YWpZtl-246" value="ajouter un membre&amp;nbsp;&lt;div&gt;à un planning existant&lt;/div&gt;" style="edgeLabel;html=1;align=center;verticalAlign=middle;resizable=0;points=[];" vertex="1" connectable="0" parent="ZaGfSk4bLFPUF5YWpZtl-245">
          <mxGeometry x="-0.2227" y="1" relative="1" as="geometry">
            <mxPoint as="offset" />
          </mxGeometry>
        </mxCell>
      </root>
    </mxGraphModel>
  </diagram>
</mxfile>
